<svg version="1.1" xmlns="http://www.w3.org/2000/svg" viewBox="0 0 1000.0000694824218 446.2000427246094" width="1000.0000694824218" height="446.2000427246094">
  <!-- svg-source:excalidraw -->
  
  <defs>
    <style class="style-fonts">
      @font-face {
        font-family: "Virgil";
        src: url("https://excalidraw.com/Virgil.woff2");
      }
      @font-face {
        font-family: "Cascadia";
        src: url("https://excalidraw.com/Cascadia.woff2");
      }
    </style>
    
  </defs>
  <rect x="0" y="0" width="1000.0000694824218" height="446.2000427246094" fill="#ffffff"></rect><g transform="translate(97.20001220703125 26) rotate(0 22.399993896484375 -2)" stroke="none"><path fill="#1e1e1e" d="M -0.49,-1.72 Q -0.49,-1.72 1.11,-2.21 2.71,-2.70 5.18,-2.86 7.66,-3.01 11.16,-3.27 14.67,-3.53 18.46,-3.85 22.25,-4.18 26.39,-4.53 30.54,-4.89 34.17,-5.03 37.81,-5.18 41.27,-5.40 44.74,-5.62 45.00,-5.58 45.26,-5.55 45.50,-5.44 45.73,-5.32 45.92,-5.14 46.11,-4.95 46.22,-4.72 46.34,-4.48 46.38,-4.22 46.42,-3.96 46.37,-3.71 46.32,-3.45 46.20,-3.22 46.07,-2.99 45.87,-2.81 45.68,-2.63 45.44,-2.53 45.20,-2.42 44.94,-2.40 44.68,-2.38 44.42,-2.44 44.17,-2.50 43.94,-2.64 43.72,-2.78 43.55,-2.98 43.39,-3.19 43.30,-3.43 43.20,-3.68 43.19,-3.94 43.19,-4.20 43.26,-4.45 43.34,-4.71 43.49,-4.92 43.64,-5.13 43.85,-5.29 44.06,-5.44 44.31,-5.52 44.56,-5.60 44.83,-5.60 45.09,-5.59 45.34,-5.50 45.58,-5.41 45.79,-5.25 45.99,-5.09 46.14,-4.87 46.28,-4.65 46.35,-4.39 46.41,-4.14 46.39,-3.88 46.37,-3.62 46.27,-3.37 46.17,-3.13 46.00,-2.93 45.82,-2.74 45.59,-2.61 45.37,-2.48 45.11,-2.42 44.85,-2.37 44.85,-2.37 44.85,-2.37 41.39,-2.35 37.94,-2.33 34.37,-2.15 30.81,-1.97 26.67,-1.55 22.54,-1.14 18.75,-0.74 14.96,-0.33 11.45,0.02 7.95,0.39 5.83,0.63 3.72,0.86 2.10,1.29 0.49,1.72 0.27,1.75 0.06,1.79 -0.14,1.77 -0.36,1.75 -0.57,1.68 -0.77,1.61 -0.95,1.50 -1.13,1.38 -1.28,1.22 -1.43,1.07 -1.54,0.88 -1.65,0.69 -1.71,0.48 -1.77,0.28 -1.78,0.06 -1.78,-0.15 -1.74,-0.36 -1.69,-0.57 -1.60,-0.76 -1.51,-0.96 -1.37,-1.13 -1.23,-1.29 -1.06,-1.42 -0.89,-1.55 -0.69,-1.64 -0.49,-1.72 -0.49,-1.72 L -0.49,-1.72 Z"></path></g><g transform="translate(191.60000610351562 22) rotate(0 12.399993896484375 -1.5999908447265625)" stroke="none"><path fill="#1e1e1e" d="M -0.53,-2.40 Q -0.53,-2.40 1.56,-2.72 3.67,-3.03 5.33,-3.25 7.00,-3.47 8.67,-3.57 10.33,-3.66 11.73,-3.73 13.12,-3.81 14.78,-4.13 16.44,-4.45 18.33,-4.72 20.23,-4.99 22.38,-5.45 24.54,-5.91 24.98,-5.88 25.42,-5.85 25.83,-5.68 26.23,-5.51 26.57,-5.22 26.90,-4.93 27.12,-4.55 27.34,-4.17 27.43,-3.74 27.52,-3.30 27.46,-2.87 27.41,-2.43 27.22,-2.03 27.03,-1.63 26.72,-1.32 26.41,-1.00 26.02,-0.80 25.63,-0.60 25.19,-0.53 24.76,-0.47 24.32,-0.55 23.89,-0.62 23.50,-0.84 23.11,-1.05 22.82,-1.37 22.52,-1.70 22.34,-2.10 22.16,-2.50 22.12,-2.94 22.08,-3.38 22.18,-3.81 22.28,-4.24 22.51,-4.61 22.74,-4.99 23.08,-5.27 23.42,-5.55 23.83,-5.71 24.25,-5.87 24.69,-5.88 25.13,-5.90 25.55,-5.78 25.97,-5.65 26.34,-5.40 26.70,-5.15 26.96,-4.79 27.22,-4.44 27.36,-4.02 27.49,-3.60 27.48,-3.16 27.48,-2.72 27.33,-2.30 27.19,-1.88 26.91,-1.54 26.64,-1.19 26.27,-0.95 25.90,-0.70 25.48,-0.59 25.05,-0.48 25.05,-0.48 25.05,-0.48 22.80,-0.08 20.54,0.31 19.12,0.33 17.69,0.34 15.46,0.53 13.24,0.71 11.90,0.71 10.56,0.71 9.05,0.78 7.54,0.85 6.07,1.02 4.60,1.19 2.57,1.80 0.53,2.40 0.23,2.43 -0.05,2.46 -0.35,2.42 -0.64,2.38 -0.92,2.26 -1.19,2.15 -1.43,1.98 -1.67,1.80 -1.86,1.58 -2.06,1.35 -2.19,1.08 -2.32,0.82 -2.39,0.53 -2.45,0.24 -2.44,-0.05 -2.44,-0.35 -2.36,-0.64 -2.28,-0.92 -2.14,-1.18 -1.99,-1.44 -1.79,-1.66 -1.59,-1.88 -1.34,-2.04 -1.09,-2.20 -0.81,-2.30 -0.53,-2.40 -0.53,-2.40 L -0.53,-2.40 Z"></path></g><g transform="translate(273.1999816894531 15.600006103515625) rotate(0 19.600006103515625 -0.8000030517578125)" stroke="none"><path fill="#1e1e1e" d="M 0,-2.15 Q 0,-2.15 2.07,-2.06 4.14,-1.96 6.85,-1.87 9.57,-1.78 12.34,-1.72 15.11,-1.66 17.20,-1.62 19.30,-1.58 20.88,-1.65 22.46,-1.72 23.97,-1.89 25.49,-2.07 27.01,-2.63 28.53,-3.20 30.79,-3.60 33.04,-4.00 34.45,-4.15 35.87,-4.30 37.53,-4.35 39.19,-4.39 39.63,-4.32 40.08,-4.24 40.48,-4.03 40.88,-3.82 41.19,-3.50 41.50,-3.17 41.69,-2.76 41.88,-2.35 41.93,-1.90 41.98,-1.45 41.89,-1.01 41.79,-0.57 41.56,-0.18 41.33,0.20 40.99,0.49 40.64,0.78 40.22,0.95 39.80,1.12 39.35,1.15 38.90,1.17 38.47,1.05 38.03,0.93 37.66,0.68 37.28,0.43 37.01,0.07 36.73,-0.28 36.59,-0.71 36.44,-1.13 36.44,-1.59 36.44,-2.04 36.58,-2.47 36.72,-2.89 37.00,-3.26 37.27,-3.62 37.64,-3.87 38.01,-4.13 38.45,-4.25 38.88,-4.37 39.34,-4.35 39.79,-4.32 40.21,-4.16 40.63,-3.99 40.97,-3.70 41.32,-3.41 41.55,-3.02 41.79,-2.64 41.88,-2.20 41.98,-1.76 41.94,-1.31 41.89,-0.86 41.70,-0.45 41.51,-0.04 41.20,0.28 40.89,0.61 40.49,0.83 40.10,1.04 39.65,1.11 39.20,1.19 39.20,1.19 39.20,1.19 37.63,1.17 36.05,1.16 34.75,1.14 33.45,1.12 32.35,1.18 31.24,1.24 29.84,1.20 28.43,1.16 26.96,1.61 25.49,2.07 23.97,1.89 22.46,1.72 20.88,1.65 19.30,1.58 17.20,1.62 15.11,1.66 12.34,1.72 9.57,1.78 6.85,1.87 4.14,1.96 2.07,2.06 0,2.15 -0.25,2.12 -0.51,2.09 -0.75,2.00 -1.00,1.90 -1.21,1.76 -1.43,1.61 -1.60,1.41 -1.77,1.22 -1.89,0.99 -2.01,0.76 -2.07,0.51 -2.14,0.25 -2.14,-0.00 -2.14,-0.26 -2.07,-0.51 -2.01,-0.76 -1.89,-0.99 -1.77,-1.22 -1.60,-1.41 -1.42,-1.61 -1.21,-1.76 -1.00,-1.90 -0.75,-2.00 -0.51,-2.09 -0.25,-2.12 0.00,-2.15 0.00,-2.15 L 0,-2.15 Z"></path></g><g transform="translate(608.3999938964844 14) rotate(0 12.800018310546875 -0.399993896484375)" stroke="none"><path fill="#1e1e1e" d="M 0,-2.11 Q 0,-2.11 2.07,-2.02 4.14,-1.93 6.62,-1.84 9.11,-1.76 11.32,-1.70 13.53,-1.64 15.53,-1.82 17.54,-2.01 19.15,-2.18 20.76,-2.36 23.15,-2.51 25.55,-2.66 25.85,-2.62 26.15,-2.58 26.42,-2.45 26.69,-2.31 26.90,-2.10 27.12,-1.88 27.25,-1.61 27.38,-1.34 27.42,-1.04 27.46,-0.74 27.41,-0.44 27.35,-0.15 27.20,0.11 27.05,0.37 26.82,0.57 26.60,0.77 26.32,0.89 26.04,1.01 25.74,1.03 25.44,1.06 25.15,0.98 24.85,0.91 24.60,0.75 24.34,0.58 24.16,0.35 23.97,0.11 23.86,-0.16 23.76,-0.45 23.75,-0.75 23.74,-1.05 23.83,-1.34 23.92,-1.63 24.10,-1.87 24.28,-2.12 24.52,-2.30 24.77,-2.47 25.06,-2.56 25.35,-2.65 25.65,-2.64 25.95,-2.63 26.24,-2.52 26.52,-2.42 26.75,-2.23 26.99,-2.04 27.15,-1.78 27.31,-1.53 27.39,-1.24 27.46,-0.94 27.43,-0.64 27.41,-0.34 27.29,-0.06 27.17,0.21 26.96,0.43 26.76,0.65 26.50,0.80 26.23,0.95 25.94,1.01 25.64,1.06 25.64,1.06 25.64,1.06 23.31,1.05 20.97,1.04 19.42,1.07 17.88,1.09 15.71,1.36 13.53,1.64 11.32,1.70 9.11,1.76 6.62,1.84 4.14,1.93 2.07,2.02 0,2.11 -0.25,2.08 -0.50,2.05 -0.74,1.96 -0.98,1.87 -1.19,1.72 -1.40,1.58 -1.56,1.39 -1.73,1.20 -1.85,0.97 -1.97,0.74 -2.03,0.50 -2.09,0.25 -2.09,-0.00 -2.09,-0.25 -2.03,-0.50 -1.97,-0.74 -1.85,-0.97 -1.73,-1.20 -1.56,-1.39 -1.40,-1.58 -1.19,-1.72 -0.98,-1.87 -0.74,-1.96 -0.50,-2.05 -0.25,-2.08 0.00,-2.11 0.00,-2.11 L 0,-2.11 Z"></path></g><g transform="translate(720.3999938964844 12.4000244140625) rotate(0 22.4000244140625 0.79998779296875)" stroke="none"><path fill="#1e1e1e" d="M 0,-1.76 Q 0,-1.76 2.07,-1.71 4.14,-1.67 8.05,-1.39 11.97,-1.11 16.61,-0.74 21.25,-0.38 25.95,-0.21 30.65,-0.05 34.03,0.02 37.41,0.09 39.53,0.13 41.66,0.17 43.24,0.10 44.81,0.03 45.06,0.07 45.31,0.11 45.54,0.24 45.76,0.36 45.93,0.54 46.10,0.73 46.21,0.96 46.31,1.19 46.34,1.45 46.36,1.70 46.30,1.95 46.25,2.19 46.11,2.41 45.98,2.63 45.78,2.79 45.59,2.95 45.35,3.04 45.11,3.13 44.86,3.14 44.61,3.15 44.36,3.08 44.12,3.01 43.91,2.87 43.70,2.72 43.55,2.52 43.40,2.31 43.32,2.07 43.24,1.83 43.25,1.58 43.25,1.32 43.33,1.08 43.42,0.84 43.57,0.64 43.73,0.44 43.94,0.30 44.15,0.16 44.40,0.10 44.64,0.03 44.90,0.05 45.15,0.07 45.39,0.16 45.62,0.26 45.81,0.43 46.00,0.59 46.13,0.81 46.26,1.03 46.31,1.28 46.36,1.53 46.33,1.78 46.30,2.03 46.19,2.26 46.08,2.49 45.91,2.67 45.73,2.86 45.50,2.97 45.28,3.09 45.03,3.13 44.78,3.16 44.78,3.16 44.78,3.16 43.20,3.05 41.63,2.94 39.49,2.93 37.36,2.92 33.96,2.88 30.56,2.84 25.80,2.72 21.04,2.61 16.41,2.32 11.78,2.03 7.96,1.85 4.13,1.67 2.06,1.71 0,1.76 -0.21,1.73 -0.42,1.71 -0.62,1.63 -0.81,1.56 -0.99,1.44 -1.16,1.32 -1.31,1.16 -1.45,1.00 -1.55,0.81 -1.64,0.62 -1.69,0.41 -1.75,0.21 -1.75,-0.00 -1.75,-0.21 -1.69,-0.41 -1.64,-0.62 -1.55,-0.81 -1.45,-1.00 -1.31,-1.16 -1.16,-1.32 -0.99,-1.44 -0.81,-1.56 -0.62,-1.63 -0.42,-1.71 -0.21,-1.73 0.00,-1.76 0.00,-1.76 L 0,-1.76 Z"></path></g><g transform="translate(389.1999816894531 10) rotate(0 0.4000244140625 0)" stroke="none"><path fill="#1e1e1e" d="M 2.12,-0.66 Q 2.12,-0.66 2.15,-0.13 2.18,0.40 1.96,0.88 1.74,1.36 1.32,1.69 0.91,2.02 0.38,2.12 -0.13,2.21 -0.64,2.05 -1.14,1.90 -1.52,1.52 -1.90,1.14 -2.05,0.64 -2.21,0.13 -2.12,-0.38 -2.02,-0.91 -1.69,-1.32 -1.36,-1.74 -0.88,-1.96 -0.39,-2.18 0.13,-2.15 0.66,-2.11 1.11,-1.84 1.57,-1.56 1.84,-1.11 L 2.12,-0.66 Z"></path></g><g transform="translate(427.6000061035156 13.20001220703125) rotate(0 0.00004999999998744897 0.00004999999998744897)" stroke="none"><path fill="#1e1e1e" d="M 1.57,-1.57 Q 1.57,-1.57 1.77,-1.27 1.98,-0.98 2.09,-0.64 2.20,-0.29 2.19,0.05 2.18,0.41 2.05,0.75 1.93,1.09 1.70,1.37 1.48,1.65 1.18,1.84 0.87,2.04 0.52,2.12 0.18,2.21 -0.17,2.18 -0.53,2.15 -0.86,2.01 -1.19,1.87 -1.46,1.63 -1.73,1.39 -1.90,1.07 -2.08,0.76 -2.15,0.41 -2.21,0.05 -2.17,-0.29 -2.12,-0.65 -1.96,-0.97 -1.80,-1.29 -1.54,-1.54 -1.29,-1.80 -0.97,-1.96 -0.65,-2.12 -0.29,-2.17 0.06,-2.21 0.41,-2.15 0.76,-2.08 1.07,-1.90 1.39,-1.73 1.63,-1.46 1.87,-1.19 2.01,-0.86 2.15,-0.53 2.18,-0.17 2.21,0.18 2.12,0.52 2.03,0.87 1.84,1.18 1.65,1.48 1.37,1.70 1.09,1.93 0.75,2.05 0.41,2.18 0.05,2.19 -0.30,2.20 -0.64,2.09 -0.98,1.98 -1.27,1.77 -1.57,1.56 -1.57,1.57 -1.57,1.57 -1.73,1.35 -1.90,1.14 -2.01,0.90 -2.12,0.66 -2.16,0.39 -2.21,0.13 -2.20,-0.13 -2.18,-0.40 -2.10,-0.65 -2.02,-0.91 -1.88,-1.14 -1.74,-1.36 -1.55,-1.55 -1.36,-1.74 -1.14,-1.88 -0.91,-2.02 -0.65,-2.10 -0.40,-2.18 -0.13,-2.20 0.13,-2.21 0.39,-2.16 0.66,-2.12 0.90,-2.01 1.14,-1.90 1.35,-1.73 1.57,-1.57 1.57,-1.57 L 1.57,-1.57 Z"></path></g><g transform="translate(455.6000061035156 11.600006103515625) rotate(0 0.00004999999998744897 0.00004999999998744897)" stroke="none"><path fill="#1e1e1e" d="M 1.57,-1.57 Q 1.57,-1.57 1.77,-1.27 1.98,-0.98 2.09,-0.64 2.20,-0.29 2.19,0.05 2.18,0.41 2.05,0.75 1.93,1.09 1.70,1.37 1.48,1.65 1.18,1.84 0.87,2.04 0.52,2.12 0.18,2.21 -0.17,2.18 -0.53,2.15 -0.86,2.01 -1.19,1.87 -1.46,1.63 -1.73,1.39 -1.90,1.07 -2.08,0.76 -2.15,0.41 -2.21,0.05 -2.17,-0.29 -2.12,-0.65 -1.96,-0.97 -1.80,-1.29 -1.54,-1.54 -1.29,-1.80 -0.97,-1.96 -0.65,-2.12 -0.29,-2.17 0.06,-2.21 0.41,-2.15 0.76,-2.08 1.07,-1.90 1.39,-1.73 1.63,-1.46 1.87,-1.19 2.01,-0.86 2.15,-0.53 2.18,-0.17 2.21,0.18 2.12,0.52 2.03,0.87 1.84,1.18 1.65,1.48 1.37,1.70 1.09,1.93 0.75,2.05 0.41,2.18 0.05,2.19 -0.30,2.20 -0.64,2.09 -0.98,1.98 -1.27,1.77 -1.57,1.56 -1.57,1.57 -1.57,1.57 -1.73,1.35 -1.90,1.14 -2.01,0.90 -2.12,0.66 -2.16,0.39 -2.21,0.13 -2.20,-0.13 -2.18,-0.40 -2.10,-0.65 -2.02,-0.91 -1.88,-1.14 -1.74,-1.36 -1.55,-1.55 -1.36,-1.74 -1.14,-1.88 -0.91,-2.02 -0.65,-2.10 -0.40,-2.18 -0.13,-2.20 0.13,-2.21 0.39,-2.16 0.66,-2.12 0.90,-2.01 1.14,-1.90 1.35,-1.73 1.57,-1.57 1.57,-1.57 L 1.57,-1.57 Z"></path></g><g transform="translate(488.3999938964844 11.600006103515625) rotate(0 0.00004999999998744897 0.00004999999998744897)" stroke="none"><path fill="#1e1e1e" d="M 1.57,-1.57 Q 1.57,-1.57 1.77,-1.27 1.98,-0.98 2.09,-0.64 2.20,-0.29 2.19,0.05 2.18,0.41 2.05,0.75 1.93,1.09 1.70,1.37 1.48,1.65 1.18,1.84 0.87,2.04 0.52,2.12 0.18,2.21 -0.17,2.18 -0.53,2.15 -0.86,2.01 -1.19,1.87 -1.46,1.63 -1.73,1.39 -1.90,1.07 -2.08,0.76 -2.15,0.41 -2.21,0.05 -2.17,-0.29 -2.12,-0.65 -1.96,-0.97 -1.80,-1.29 -1.54,-1.54 -1.29,-1.80 -0.97,-1.96 -0.65,-2.12 -0.29,-2.17 0.06,-2.21 0.41,-2.15 0.76,-2.08 1.07,-1.90 1.39,-1.73 1.63,-1.46 1.87,-1.19 2.01,-0.86 2.15,-0.53 2.18,-0.17 2.21,0.18 2.12,0.52 2.03,0.87 1.84,1.18 1.65,1.48 1.37,1.70 1.09,1.93 0.75,2.05 0.41,2.18 0.05,2.19 -0.30,2.20 -0.64,2.09 -0.98,1.98 -1.27,1.77 -1.57,1.56 -1.57,1.57 -1.57,1.57 -1.73,1.35 -1.90,1.14 -2.01,0.90 -2.12,0.66 -2.16,0.39 -2.21,0.13 -2.20,-0.13 -2.18,-0.40 -2.10,-0.65 -2.02,-0.91 -1.88,-1.14 -1.74,-1.36 -1.55,-1.55 -1.36,-1.74 -1.14,-1.88 -0.91,-2.02 -0.65,-2.10 -0.40,-2.18 -0.13,-2.20 0.13,-2.21 0.39,-2.16 0.66,-2.12 0.90,-2.01 1.14,-1.90 1.35,-1.73 1.57,-1.57 1.57,-1.57 L 1.57,-1.57 Z"></path></g><g transform="translate(515.6000061035156 14.800018310546875) rotate(0 0.00004999999998744897 0.00004999999998744897)" stroke="none"><path fill="#1e1e1e" d="M 1.57,-1.57 Q 1.57,-1.57 1.77,-1.27 1.98,-0.98 2.09,-0.64 2.20,-0.29 2.19,0.05 2.18,0.41 2.05,0.75 1.93,1.09 1.70,1.37 1.48,1.65 1.18,1.84 0.87,2.04 0.52,2.12 0.18,2.21 -0.17,2.18 -0.53,2.15 -0.86,2.01 -1.19,1.87 -1.46,1.63 -1.73,1.39 -1.90,1.07 -2.08,0.76 -2.15,0.41 -2.21,0.05 -2.17,-0.29 -2.12,-0.65 -1.96,-0.97 -1.80,-1.29 -1.54,-1.54 -1.29,-1.80 -0.97,-1.96 -0.65,-2.12 -0.29,-2.17 0.06,-2.21 0.41,-2.15 0.76,-2.08 1.07,-1.90 1.39,-1.73 1.63,-1.46 1.87,-1.19 2.01,-0.86 2.15,-0.53 2.18,-0.17 2.21,0.18 2.12,0.52 2.03,0.87 1.84,1.18 1.65,1.48 1.37,1.70 1.09,1.93 0.75,2.05 0.41,2.18 0.05,2.19 -0.30,2.20 -0.64,2.09 -0.98,1.98 -1.27,1.77 -1.57,1.56 -1.57,1.57 -1.57,1.57 -1.73,1.35 -1.90,1.14 -2.01,0.90 -2.12,0.66 -2.16,0.39 -2.21,0.13 -2.20,-0.13 -2.18,-0.40 -2.10,-0.65 -2.02,-0.91 -1.88,-1.14 -1.74,-1.36 -1.55,-1.55 -1.36,-1.74 -1.14,-1.88 -0.91,-2.02 -0.65,-2.10 -0.40,-2.18 -0.13,-2.20 0.13,-2.21 0.39,-2.16 0.66,-2.12 0.90,-2.01 1.14,-1.90 1.35,-1.73 1.57,-1.57 1.57,-1.57 L 1.57,-1.57 Z"></path></g><g transform="translate(246 84.4000244140625) rotate(0 198.00001525878906 -6)" stroke="none"><path fill="#1e1e1e" d="M -0.50,-2.01 Q -0.50,-2.01 1.34,-2.43 3.19,-2.85 4.90,-3.27 6.60,-3.69 8.37,-3.91 10.15,-4.13 11.94,-4.40 13.74,-4.67 16.17,-4.95 18.59,-5.22 21.07,-5.32 23.54,-5.42 24.90,-5.77 26.26,-6.12 27.50,-6.53 28.74,-6.94 29.86,-7.20 30.98,-7.45 32.91,-7.50 34.84,-7.54 36.67,-7.74 38.50,-7.94 40.78,-7.98 43.06,-8.01 44.70,-8.10 46.34,-8.19 48.81,-8.36 51.29,-8.53 54.26,-8.59 57.23,-8.64 59.40,-8.65 61.57,-8.65 63.31,-9.20 65.05,-9.75 66.14,-9.95 67.23,-10.16 68.89,-10.29 70.56,-10.42 71.89,-10.44 73.22,-10.46 75.17,-10.36 77.12,-10.26 79.33,-10.13 81.53,-10.01 83.85,-9.92 86.17,-9.82 88.07,-9.81 89.98,-9.79 92.26,-9.49 94.53,-9.19 96.34,-9.11 98.15,-9.03 99.75,-8.82 101.34,-8.60 103.01,-8.50 104.69,-8.41 106.78,-8.29 108.88,-8.17 111.38,-8.10 113.89,-8.02 116.85,-7.74 119.82,-7.46 123.41,-6.87 127.00,-6.27 130.05,-6.02 133.10,-5.77 136.23,-5.65 139.36,-5.54 141.91,-5.25 144.46,-4.96 147.14,-4.61 149.82,-4.25 152.35,-3.87 154.88,-3.48 157.95,-3.32 161.02,-3.17 164.18,-3.10 167.33,-3.02 170.05,-2.99 172.78,-2.96 175.15,-2.72 177.52,-2.47 179.17,-2.45 180.82,-2.44 181.97,-2.51 183.13,-2.58 184.30,-2.65 185.47,-2.73 186.88,-2.77 188.30,-2.82 190.74,-2.73 193.18,-2.63 196.06,-2.56 198.94,-2.49 201.77,-2.43 204.61,-2.38 207.42,-2.35 210.23,-2.31 213.04,-2.28 215.85,-2.25 218.42,-2.23 220.99,-2.21 223.93,-2.20 226.86,-2.18 230.18,-2.17 233.49,-2.16 236.74,-2.16 239.99,-2.15 243.44,-2.14 246.89,-2.14 250.20,-2.13 253.51,-2.13 256.98,-2.13 260.46,-2.12 264.19,-2.35 267.93,-2.58 271.40,-2.67 274.86,-2.77 278.41,-2.81 281.95,-2.85 285.49,-3.10 289.02,-3.34 292.36,-3.68 295.70,-4.01 298.96,-4.38 302.22,-4.75 304.79,-4.91 307.36,-5.07 309.61,-5.14 311.86,-5.21 313.90,-5.47 315.93,-5.72 317.69,-6.11 319.45,-6.51 321.21,-6.73 322.96,-6.95 324.16,-7.12 325.36,-7.29 326.39,-7.61 327.42,-7.93 328.82,-8.31 330.21,-8.69 332.00,-9.05 333.78,-9.41 335.81,-9.55 337.83,-9.69 339.47,-9.98 341.11,-10.27 342.36,-10.48 343.60,-10.68 345.11,-11.21 346.61,-11.73 347.73,-11.85 348.84,-11.98 350.27,-12.19 351.71,-12.41 354.59,-12.39 357.47,-12.36 360.60,-12.75 363.72,-13.14 366.79,-13.28 369.86,-13.43 372.08,-13.46 374.29,-13.49 375.46,-13.63 376.62,-13.77 377.90,-13.95 379.17,-14.13 380.30,-14.25 381.42,-14.37 383.17,-14.47 384.91,-14.57 386.40,-14.65 387.90,-14.73 389.61,-14.79 391.32,-14.84 393.66,-14.87 396.00,-14.89 396.46,-14.82 396.92,-14.74 397.34,-14.52 397.75,-14.30 398.07,-13.96 398.39,-13.62 398.59,-13.20 398.79,-12.77 398.84,-12.30 398.89,-11.84 398.79,-11.38 398.69,-10.92 398.45,-10.52 398.20,-10.12 397.85,-9.81 397.49,-9.51 397.05,-9.34 396.62,-9.16 396.15,-9.14 395.68,-9.11 395.23,-9.24 394.78,-9.36 394.39,-9.63 394.00,-9.89 393.72,-10.26 393.43,-10.64 393.28,-11.08 393.13,-11.53 393.13,-12.00 393.13,-12.46 393.28,-12.91 393.43,-13.35 393.72,-13.73 394.00,-14.10 394.39,-14.36 394.78,-14.63 395.23,-14.75 395.68,-14.88 396.15,-14.85 396.62,-14.83 397.05,-14.65 397.49,-14.48 397.85,-14.17 398.20,-13.87 398.45,-13.47 398.69,-13.07 398.79,-12.61 398.89,-12.15 398.84,-11.68 398.79,-11.22 398.59,-10.79 398.39,-10.37 398.07,-10.03 397.75,-9.69 397.33,-9.47 396.92,-9.25 396.46,-9.17 395.99,-9.10 395.99,-9.10 396.00,-9.10 393.66,-9.12 391.32,-9.15 389.61,-9.20 387.90,-9.26 386.40,-9.34 384.91,-9.42 383.17,-9.52 381.43,-9.61 380.33,-9.73 379.23,-9.84 377.99,-9.97 376.74,-10.10 375.59,-10.17 374.43,-10.23 372.27,-10.08 370.11,-9.93 367.21,-9.64 364.31,-9.36 360.98,-8.73 357.64,-8.11 355.06,-7.87 352.47,-7.64 350.79,-7.35 349.10,-7.06 347.75,-7.05 346.39,-7.04 345.22,-6.78 344.06,-6.53 342.91,-6.49 341.77,-6.44 339.96,-6.14 338.15,-5.83 336.39,-5.65 334.62,-5.47 332.89,-5.09 331.16,-4.70 329.70,-4.40 328.25,-4.10 326.90,-3.91 325.55,-3.72 324.39,-3.76 323.23,-3.81 321.61,-3.74 319.98,-3.68 318.12,-3.39 316.26,-3.10 314.10,-2.84 311.94,-2.58 309.73,-2.52 307.52,-2.45 305.02,-2.29 302.51,-2.14 299.24,-1.76 295.96,-1.39 292.58,-1.05 289.21,-0.71 285.60,-0.46 281.99,-0.21 278.46,-0.17 274.94,-0.13 271.52,-0.03 268.09,0.06 264.27,0.29 260.46,0.52 256.98,0.53 253.51,0.53 250.20,0.53 246.89,0.54 243.44,0.54 239.99,0.55 236.74,0.56 233.49,0.56 230.18,0.57 226.86,0.58 223.93,0.60 220.99,0.61 218.42,0.63 215.85,0.65 213.04,0.68 210.23,0.71 207.42,0.74 204.61,0.78 201.77,0.83 198.94,0.88 196.06,0.95 193.18,1.02 190.73,1.11 188.28,1.20 186.84,1.14 185.41,1.07 184.21,0.96 183.00,0.85 181.82,0.69 180.63,0.53 178.94,0.34 177.24,0.15 174.99,-0.08 172.75,-0.31 170.01,-0.34 167.27,-0.37 164.08,-0.43 160.89,-0.50 157.68,-0.66 154.48,-0.82 151.98,-1.19 149.47,-1.56 146.82,-1.90 144.16,-2.24 141.72,-2.49 139.27,-2.75 136.08,-2.84 132.88,-2.93 129.71,-3.15 126.54,-3.38 123.05,-3.91 119.57,-4.43 116.71,-4.63 113.86,-4.83 111.33,-4.79 108.80,-4.76 106.62,-4.74 104.45,-4.72 102.57,-4.86 100.68,-5.00 99.33,-5.32 97.97,-5.65 96.08,-5.76 94.18,-5.88 92.08,-6.04 89.98,-6.20 88.07,-6.18 86.17,-6.17 83.85,-6.07 81.53,-5.98 79.33,-5.85 77.12,-5.73 75.17,-5.63 73.23,-5.53 71.90,-5.54 70.57,-5.56 68.58,-5.71 66.58,-5.86 65.42,-5.89 64.27,-5.92 62.95,-5.76 61.64,-5.60 59.49,-5.52 57.34,-5.43 54.48,-5.28 51.62,-5.12 49.04,-4.79 46.45,-4.47 44.84,-4.46 43.24,-4.46 41.13,-4.27 39.01,-4.08 37.00,-3.77 34.99,-3.46 32.37,-3.33 29.75,-3.19 28.35,-2.90 26.96,-2.60 25.36,-2.36 23.76,-2.12 21.44,-1.91 19.12,-1.70 16.75,-1.26 14.38,-0.82 12.48,-0.47 10.59,-0.13 9.07,0.01 7.56,0.15 5.86,0.58 4.16,1.01 2.33,1.51 0.50,2.01 0.25,2.04 0.00,2.07 -0.24,2.05 -0.49,2.02 -0.72,1.93 -0.96,1.84 -1.16,1.70 -1.37,1.56 -1.54,1.37 -1.70,1.18 -1.82,0.96 -1.94,0.74 -2.00,0.50 -2.06,0.25 -2.06,0.00 -2.06,-0.24 -2.00,-0.48 -1.94,-0.73 -1.83,-0.95 -1.71,-1.17 -1.54,-1.36 -1.38,-1.55 -1.17,-1.69 -0.97,-1.83 -0.73,-1.92 -0.50,-2.01 -0.50,-2.01 L -0.50,-2.01 Z"></path></g><g transform="translate(430.0000305175781 134.80001831054688) rotate(0 0.79998779296875 18)" stroke="none"><path fill="#1e1e1e" d="M 1.95,0 Q 1.95,0 1.88,2.06 1.81,4.13 1.77,6.16 1.72,8.19 1.67,10.44 1.61,12.68 1.57,14.78 1.54,16.89 1.73,19.08 1.93,21.28 2.06,23.21 2.19,25.13 2.50,26.76 2.82,28.39 3.02,29.87 3.22,31.35 3.39,33.64 3.55,35.94 3.51,36.25 3.46,36.56 3.32,36.85 3.19,37.13 2.96,37.35 2.74,37.58 2.46,37.72 2.17,37.86 1.86,37.90 1.55,37.95 1.24,37.89 0.93,37.83 0.65,37.68 0.38,37.52 0.16,37.29 -0.04,37.05 -0.16,36.76 -0.29,36.47 -0.32,36.16 -0.34,35.84 -0.27,35.54 -0.19,35.23 -0.02,34.96 0.14,34.70 0.38,34.50 0.63,34.30 0.92,34.19 1.22,34.08 1.54,34.07 1.85,34.06 2.15,34.15 2.46,34.24 2.71,34.43 2.97,34.61 3.16,34.87 3.34,35.12 3.44,35.42 3.53,35.73 3.52,36.04 3.51,36.36 3.41,36.65 3.30,36.95 3.10,37.20 2.90,37.44 2.64,37.62 2.37,37.79 2.07,37.86 1.76,37.94 1.44,37.92 1.13,37.89 0.84,37.77 0.55,37.64 0.31,37.43 0.08,37.22 -0.07,36.95 -0.23,36.67 -0.29,36.36 -0.35,36.05 -0.35,36.05 -0.35,36.05 -0.36,33.85 -0.36,31.64 -0.39,30.27 -0.42,28.91 -0.65,27.10 -0.88,25.29 -0.94,23.43 -1.01,21.58 -1.27,19.23 -1.54,16.89 -1.57,14.78 -1.61,12.68 -1.67,10.44 -1.72,8.19 -1.77,6.16 -1.81,4.13 -1.88,2.06 -1.95,0 -1.92,-0.23 -1.89,-0.46 -1.81,-0.68 -1.73,-0.90 -1.59,-1.10 -1.46,-1.29 -1.28,-1.45 -1.11,-1.60 -0.90,-1.71 -0.69,-1.82 -0.46,-1.88 -0.23,-1.94 0.00,-1.94 0.23,-1.94 0.46,-1.88 0.69,-1.82 0.90,-1.71 1.11,-1.60 1.28,-1.45 1.46,-1.29 1.59,-1.10 1.73,-0.90 1.81,-0.68 1.89,-0.46 1.92,-0.23 1.95,0.00 1.95,0.00 L 1.95,0 Z"></path></g><g transform="translate(410.8000183105469 175.60000610351562) rotate(0 24.79998779296875 10.400039672851562)" stroke="none"><path fill="#1e1e1e" d="M 2.25,-1.12 Q 2.25,-1.12 3.05,0.77 3.85,2.67 4.63,3.77 5.41,4.88 6.38,6.85 7.35,8.82 7.78,9.96 8.21,11.10 9.02,12.74 9.84,14.39 10.56,16.21 11.28,18.04 11.96,19.17 12.64,20.30 13.18,21.21 13.72,22.13 14.50,22.93 15.27,23.74 14.37,23.15 13.48,22.56 12.37,22.78 11.26,23.00 12.02,22.05 12.78,21.10 13.68,20.05 14.59,19.01 16.32,17.24 18.05,15.47 20.08,13.75 22.12,12.04 25.10,9.75 28.09,7.46 30.73,5.39 33.38,3.33 36.20,1.50 39.03,-0.31 41.64,-1.76 44.25,-3.22 46.42,-4.77 48.60,-6.31 48.87,-6.43 49.14,-6.55 49.43,-6.58 49.72,-6.61 50.01,-6.54 50.30,-6.47 50.54,-6.31 50.79,-6.16 50.98,-5.93 51.17,-5.71 51.27,-5.43 51.37,-5.16 51.39,-4.86 51.40,-4.57 51.31,-4.29 51.23,-4.01 51.06,-3.76 50.89,-3.52 50.66,-3.35 50.42,-3.18 50.14,-3.09 49.86,-3.00 49.57,-3.00 49.27,-3.01 48.99,-3.11 48.72,-3.21 48.49,-3.39 48.26,-3.57 48.10,-3.81 47.93,-4.06 47.86,-4.34 47.79,-4.63 47.81,-4.92 47.83,-5.22 47.94,-5.49 48.05,-5.76 48.25,-5.98 48.44,-6.20 48.70,-6.35 48.95,-6.49 49.24,-6.55 49.53,-6.61 49.82,-6.57 50.11,-6.54 50.37,-6.41 50.64,-6.28 50.85,-6.08 51.06,-5.87 51.19,-5.61 51.33,-5.35 51.37,-5.06 51.41,-4.76 51.36,-4.48 51.31,-4.19 51.16,-3.93 51.02,-3.67 50.81,-3.47 50.59,-3.27 50.59,-3.28 50.59,-3.28 48.22,-1.85 45.86,-0.43 43.41,1.04 40.95,2.53 38.36,4.36 35.76,6.20 33.24,8.43 30.72,10.65 28.03,13.04 25.34,15.43 23.77,17.15 22.20,18.87 20.85,20.86 19.51,22.84 18.30,24.36 17.10,25.88 16.37,26.75 15.64,27.62 14.30,27.91 12.95,28.19 11.33,27.11 9.70,26.03 9.18,25.02 8.67,24.00 7.93,22.91 7.18,21.81 6.53,19.99 5.88,18.17 5.04,16.50 4.20,14.83 3.81,13.81 3.42,12.78 3.06,11.68 2.71,10.58 2.18,9.01 1.66,7.44 0.74,6.06 -0.17,4.68 -1.21,2.90 -2.25,1.12 -2.35,0.84 -2.46,0.55 -2.49,0.25 -2.52,-0.04 -2.47,-0.35 -2.43,-0.65 -2.32,-0.93 -2.20,-1.21 -2.03,-1.46 -1.85,-1.70 -1.62,-1.90 -1.39,-2.10 -1.11,-2.23 -0.84,-2.37 -0.55,-2.44 -0.25,-2.50 0.04,-2.50 0.35,-2.49 0.64,-2.41 0.94,-2.34 1.20,-2.19 1.47,-2.04 1.69,-1.84 1.92,-1.63 2.08,-1.38 2.25,-1.12 2.25,-1.12 L 2.25,-1.12 Z"></path></g><g transform="translate(99.60000610351562 302.8000183105469) rotate(0 20 -3.20001220703125)" stroke="none"><path fill="#1e1e1e" d="M -0.33,-2.03 Q -0.33,-2.03 2.43,-2.39 5.21,-2.75 8.19,-3.33 11.18,-3.90 14.35,-4.36 17.52,-4.83 20.95,-5.24 24.38,-5.65 26.95,-6.04 29.53,-6.42 30.73,-6.91 31.94,-7.39 33.42,-7.84 34.89,-8.29 37.44,-8.51 39.99,-8.73 40.36,-8.67 40.74,-8.61 41.07,-8.43 41.40,-8.26 41.66,-7.98 41.92,-7.71 42.08,-7.37 42.24,-7.03 42.29,-6.65 42.33,-6.27 42.25,-5.91 42.17,-5.54 41.97,-5.21 41.78,-4.89 41.49,-4.64 41.20,-4.40 40.85,-4.26 40.50,-4.12 40.13,-4.09 39.75,-4.07 39.38,-4.17 39.02,-4.27 38.71,-4.48 38.39,-4.70 38.16,-5.00 37.93,-5.30 37.81,-5.65 37.69,-6.01 37.69,-6.39 37.69,-6.77 37.81,-7.13 37.93,-7.48 38.16,-7.79 38.38,-8.09 38.70,-8.30 39.01,-8.51 39.37,-8.61 39.74,-8.72 40.11,-8.70 40.49,-8.68 40.84,-8.54 41.19,-8.40 41.48,-8.15 41.77,-7.91 41.97,-7.59 42.16,-7.26 42.24,-6.90 42.33,-6.53 42.29,-6.15 42.25,-5.78 42.09,-5.43 41.93,-5.09 41.67,-4.81 41.41,-4.54 41.08,-4.36 40.75,-4.18 40.37,-4.12 40.00,-4.06 40.00,-4.06 40.00,-4.06 37.71,-4.17 35.42,-4.28 34.17,-4.24 32.92,-4.19 31.46,-3.86 30.00,-3.53 27.39,-3.07 24.77,-2.62 21.41,-2.14 18.04,-1.66 14.97,-1.10 11.91,-0.55 8.86,0.18 5.82,0.91 3.08,1.47 0.33,2.03 0.09,2.04 -0.15,2.05 -0.40,2.00 -0.64,1.95 -0.86,1.85 -1.09,1.74 -1.28,1.58 -1.48,1.43 -1.63,1.23 -1.78,1.03 -1.87,0.80 -1.97,0.58 -2.01,0.33 -2.05,0.09 -2.03,-0.15 -2.02,-0.40 -1.94,-0.64 -1.86,-0.87 -1.73,-1.08 -1.60,-1.29 -1.42,-1.46 -1.24,-1.64 -1.02,-1.76 -0.81,-1.89 -0.57,-1.96 -0.33,-2.03 -0.33,-2.03 L -0.33,-2.03 Z"></path></g><g transform="translate(184.39999389648438 289.2000427246094) rotate(0 11.600006103515625 -1.20001220703125)" stroke="none"><path fill="#1e1e1e" d="M 0,-2.63 Q 0,-2.63 1.61,-2.59 3.22,-2.54 4.75,-2.63 6.28,-2.71 7.42,-2.78 8.57,-2.84 9.62,-3.21 10.67,-3.57 12.25,-4.02 13.83,-4.46 14.93,-4.60 16.04,-4.74 17.55,-5.18 19.06,-5.62 21.12,-5.67 23.17,-5.72 23.71,-5.64 24.24,-5.56 24.71,-5.31 25.19,-5.06 25.57,-4.67 25.94,-4.28 26.17,-3.79 26.40,-3.31 26.46,-2.77 26.52,-2.24 26.41,-1.71 26.30,-1.18 26.02,-0.72 25.75,-0.26 25.34,0.08 24.93,0.44 24.43,0.64 23.93,0.84 23.39,0.87 22.86,0.91 22.34,0.77 21.82,0.62 21.37,0.33 20.92,0.03 20.59,-0.39 20.26,-0.82 20.09,-1.33 19.91,-1.84 19.91,-2.37 19.91,-2.91 20.08,-3.42 20.24,-3.94 20.57,-4.37 20.89,-4.80 21.33,-5.10 21.78,-5.41 22.30,-5.55 22.81,-5.70 23.35,-5.68 23.89,-5.65 24.39,-5.45 24.89,-5.26 25.31,-4.91 25.72,-4.57 26.00,-4.11 26.28,-3.65 26.40,-3.12 26.52,-2.60 26.46,-2.06 26.41,-1.52 26.18,-1.03 25.96,-0.54 25.59,-0.15 25.23,0.23 24.75,0.49 24.28,0.74 23.75,0.83 23.22,0.92 23.22,0.92 23.22,0.92 21.31,0.84 19.40,0.76 18.33,1.16 17.26,1.57 16.08,1.55 14.91,1.53 12.93,1.92 10.95,2.31 9.80,2.58 8.64,2.84 7.46,2.78 6.28,2.71 4.75,2.63 3.22,2.54 1.61,2.59 0,2.63 -0.31,2.59 -0.63,2.55 -0.92,2.44 -1.22,2.33 -1.48,2.15 -1.74,1.97 -1.95,1.73 -2.16,1.49 -2.31,1.21 -2.46,0.93 -2.54,0.62 -2.61,0.31 -2.61,-0.00 -2.61,-0.31 -2.54,-0.62 -2.46,-0.93 -2.31,-1.21 -2.16,-1.49 -1.95,-1.73 -1.74,-1.97 -1.48,-2.15 -1.22,-2.33 -0.92,-2.44 -0.63,-2.55 -0.31,-2.59 0.00,-2.63 0.00,-2.63 L 0,-2.63 Z"></path></g><g transform="translate(242.79998779296875 286.8000183105469) rotate(0 190.00001525878906 -9.600006103515625)" stroke="none"><path fill="#1e1e1e" d="M 0,-1.73 Q 0,-1.73 1.61,-1.78 3.22,-1.83 4.82,-1.87 6.42,-1.91 8.03,-1.94 9.63,-1.97 11.46,-1.95 13.29,-1.93 15.45,-1.85 17.60,-1.77 20.59,-1.70 23.58,-1.64 26.69,-1.60 29.80,-1.55 32.50,-1.52 35.20,-1.49 38.19,-1.46 41.18,-1.44 44.06,-1.42 46.94,-1.40 49.31,-1.39 51.69,-1.38 54.30,-1.37 56.92,-1.36 60.34,-1.35 63.75,-1.34 68.16,-1.57 72.56,-1.79 78.84,-1.89 85.12,-1.98 90.75,-2.25 96.38,-2.52 100.87,-2.63 105.35,-2.75 108.87,-2.79 112.39,-2.84 116.18,-2.86 119.98,-2.88 123.16,-3.12 126.34,-3.36 129.34,-3.46 132.35,-3.56 135.18,-3.83 138.02,-4.10 141.35,-4.22 144.68,-4.34 148.31,-4.84 151.95,-5.34 155.83,-5.79 159.72,-6.24 163.48,-6.43 167.24,-6.63 169.92,-6.93 172.61,-7.24 174.48,-7.43 176.36,-7.63 177.47,-8.01 178.59,-8.39 180.63,-8.53 182.67,-8.68 185.59,-8.68 188.51,-8.69 192.42,-9.13 196.32,-9.57 202.14,-10.44 207.95,-11.30 214.62,-11.90 221.28,-12.50 228.23,-13.20 235.17,-13.91 242.06,-14.44 248.94,-14.96 254.38,-15.41 259.83,-15.86 264.01,-16.06 268.19,-16.25 272.00,-16.55 275.82,-16.86 280.47,-16.99 285.13,-17.13 290.26,-17.64 295.40,-18.15 300.14,-18.60 304.87,-19.05 308.99,-19.24 313.10,-19.43 317.15,-19.51 321.20,-19.59 324.30,-19.63 327.41,-19.66 329.18,-19.75 330.96,-19.83 332.59,-20.05 334.23,-20.27 336.12,-20.25 338.01,-20.23 342.03,-20.16 346.05,-20.09 350.25,-20.27 354.44,-20.45 358.34,-20.51 362.23,-20.57 364.58,-20.58 366.92,-20.60 368.37,-20.71 369.83,-20.82 371.27,-21.02 372.71,-21.21 376.35,-21.35 379.99,-21.49 380.36,-21.43 380.73,-21.37 381.06,-21.20 381.39,-21.02 381.64,-20.75 381.90,-20.49 382.05,-20.15 382.21,-19.81 382.25,-19.44 382.29,-19.07 382.21,-18.71 382.13,-18.35 381.94,-18.03 381.75,-17.71 381.46,-17.47 381.18,-17.23 380.83,-17.09 380.49,-16.95 380.12,-16.93 379.75,-16.91 379.39,-17.01 379.03,-17.11 378.72,-17.32 378.42,-17.53 378.19,-17.82 377.97,-18.12 377.85,-18.47 377.73,-18.82 377.73,-19.19 377.73,-19.57 377.85,-19.92 377.96,-20.27 378.19,-20.57 378.41,-20.86 378.72,-21.07 379.03,-21.28 379.39,-21.38 379.75,-21.48 380.12,-21.46 380.49,-21.44 380.83,-21.30 381.18,-21.16 381.46,-20.92 381.75,-20.68 381.94,-20.36 382.13,-20.05 382.21,-19.68 382.29,-19.32 382.25,-18.95 382.21,-18.58 382.05,-18.24 381.90,-17.91 381.64,-17.64 381.39,-17.37 381.06,-17.19 380.73,-17.02 380.36,-16.96 380.00,-16.90 380.00,-16.90 380.00,-16.90 376.36,-17.04 372.73,-17.17 371.30,-17.34 369.87,-17.51 368.42,-17.59 366.97,-17.67 364.64,-17.60 362.31,-17.53 358.46,-17.40 354.61,-17.26 350.33,-16.98 346.05,-16.70 342.03,-16.62 338.01,-16.55 336.13,-16.53 334.24,-16.52 332.61,-16.72 330.98,-16.91 329.21,-16.97 327.43,-17.03 324.35,-16.99 321.26,-16.96 317.24,-16.88 313.22,-16.80 309.17,-16.61 305.12,-16.42 300.39,-15.96 295.66,-15.51 290.43,-14.99 285.20,-14.47 280.62,-14.34 276.03,-14.20 272.17,-13.89 268.32,-13.57 264.19,-13.37 260.06,-13.17 254.60,-12.71 249.15,-12.24 242.31,-11.70 235.46,-11.15 228.50,-10.42 221.54,-9.69 214.97,-9.06 208.39,-8.44 202.54,-7.52 196.68,-6.59 192.62,-6.07 188.56,-5.55 185.72,-5.45 182.88,-5.35 181.10,-5.26 179.32,-5.16 177.94,-4.97 176.56,-4.77 174.74,-4.70 172.91,-4.63 170.14,-4.32 167.37,-4.00 163.70,-3.82 160.02,-3.63 156.16,-3.18 152.31,-2.74 148.54,-2.22 144.78,-1.71 141.52,-1.60 138.27,-1.48 135.35,-1.21 132.44,-0.93 129.48,-0.83 126.53,-0.73 123.26,-0.49 120.00,-0.25 116.21,-0.22 112.42,-0.20 108.92,-0.15 105.42,-0.10 100.96,0.01 96.51,0.12 90.84,0.40 85.17,0.67 78.93,0.77 72.70,0.87 68.22,1.11 63.75,1.34 60.34,1.35 56.92,1.36 54.30,1.37 51.69,1.38 49.31,1.39 46.94,1.40 44.06,1.42 41.18,1.44 38.19,1.46 35.20,1.49 32.50,1.52 29.80,1.55 26.69,1.60 23.58,1.64 20.59,1.70 17.60,1.77 15.45,1.85 13.29,1.93 11.46,1.95 9.63,1.97 8.03,1.94 6.42,1.91 4.82,1.87 3.22,1.83 1.61,1.78 0,1.73 -0.20,1.70 -0.41,1.68 -0.61,1.60 -0.80,1.53 -0.97,1.41 -1.14,1.29 -1.28,1.14 -1.42,0.98 -1.52,0.79 -1.62,0.61 -1.67,0.41 -1.72,0.20 -1.72,-0.00 -1.72,-0.20 -1.67,-0.41 -1.62,-0.61 -1.52,-0.79 -1.42,-0.98 -1.28,-1.14 -1.14,-1.29 -0.97,-1.41 -0.80,-1.53 -0.61,-1.60 -0.41,-1.68 -0.20,-1.70 0.00,-1.73 0.00,-1.73 L 0,-1.73 Z"></path></g><g transform="translate(669.1999816894531 275.6000061035156) rotate(0 46.399993896484375 -2)" stroke="none"><path fill="#1e1e1e" d="M -0.11,-1.55 Q -0.11,-1.55 3.11,-1.75 6.33,-1.95 9.10,-2.02 11.88,-2.09 14.67,-2.12 17.47,-2.14 20.68,-2.37 23.88,-2.61 27.83,-2.71 31.78,-2.80 36.67,-2.84 41.57,-2.88 46.60,-3.12 51.64,-3.37 56.77,-3.70 61.91,-4.03 67.34,-4.17 72.77,-4.31 77.57,-4.60 82.38,-4.89 85.36,-5.01 88.35,-5.13 90.54,-5.22 92.74,-5.31 92.95,-5.29 93.16,-5.26 93.36,-5.17 93.55,-5.08 93.70,-4.93 93.85,-4.78 93.95,-4.59 94.05,-4.40 94.08,-4.19 94.11,-3.98 94.08,-3.77 94.04,-3.56 93.94,-3.37 93.83,-3.18 93.68,-3.04 93.52,-2.89 93.33,-2.81 93.13,-2.72 92.92,-2.70 92.71,-2.68 92.50,-2.73 92.29,-2.78 92.11,-2.89 91.93,-3.00 91.79,-3.17 91.66,-3.33 91.58,-3.53 91.50,-3.73 91.49,-3.94 91.49,-4.15 91.55,-4.36 91.61,-4.56 91.73,-4.74 91.85,-4.91 92.02,-5.04 92.19,-5.17 92.40,-5.23 92.60,-5.30 92.81,-5.30 93.02,-5.29 93.23,-5.22 93.43,-5.15 93.60,-5.02 93.76,-4.89 93.88,-4.71 94.00,-4.53 94.05,-4.33 94.11,-4.12 94.09,-3.91 94.08,-3.69 94.00,-3.50 93.92,-3.30 93.78,-3.14 93.64,-2.98 93.45,-2.87 93.27,-2.76 93.06,-2.72 92.85,-2.68 92.85,-2.68 92.85,-2.68 90.65,-2.59 88.46,-2.49 85.50,-2.37 82.54,-2.24 77.69,-1.95 72.84,-1.66 67.46,-1.51 62.08,-1.37 56.93,-1.03 51.77,-0.69 46.68,-0.43 41.59,-0.18 36.72,-0.13 31.85,-0.08 27.97,0.03 24.09,0.14 20.80,0.40 17.51,0.67 14.75,0.72 11.98,0.78 9.26,0.90 6.54,1.03 3.32,1.29 0.11,1.55 -0.07,1.54 -0.26,1.53 -0.44,1.48 -0.62,1.43 -0.78,1.33 -0.95,1.24 -1.08,1.10 -1.21,0.97 -1.31,0.81 -1.41,0.65 -1.47,0.47 -1.53,0.29 -1.54,0.11 -1.56,-0.07 -1.52,-0.26 -1.49,-0.44 -1.42,-0.62 -1.34,-0.79 -1.23,-0.94 -1.11,-1.09 -0.96,-1.21 -0.82,-1.32 -0.65,-1.40 -0.48,-1.48 -0.29,-1.52 -0.11,-1.55 -0.11,-1.55 L -0.11,-1.55 Z"></path></g><g transform="translate(53.20001220703125 361.2000427246094) rotate(0 260.009765625 37.5)"><text x="0" y="0" font-family="Virgil, Segoe UI Emoji" font-size="20px" fill="#1e1e1e" text-anchor="start" style="white-space: pre;" direction="ltr" dominant-baseline="text-before-edge">1. add left of the merged interval to result</text><text x="0" y="25" font-family="Virgil, Segoe UI Emoji" font-size="20px" fill="#1e1e1e" text-anchor="start" style="white-space: pre;" direction="ltr" dominant-baseline="text-before-edge">2. merge the overlapping interval then add to result</text><text x="0" y="50" font-family="Virgil, Segoe UI Emoji" font-size="20px" fill="#1e1e1e" text-anchor="start" style="white-space: pre;" direction="ltr" dominant-baseline="text-before-edge">3. add right of the merged interval to result</text></g><g transform="translate(158.79998779296875 318.8000183105469) rotate(0 0.8000030517578125 8)" stroke="none"><path fill="#1e1e1e" d="M 2.54,0 Q 2.54,0 2.50,1.60 2.47,3.21 2.48,4.59 2.48,5.96 2.71,7.01 2.94,8.06 3.09,9.16 3.24,10.26 3.77,12.89 4.30,15.51 4.31,15.95 4.31,16.40 4.18,16.82 4.04,17.25 3.78,17.60 3.52,17.96 3.15,18.22 2.79,18.47 2.36,18.60 1.93,18.72 1.49,18.71 1.05,18.69 0.63,18.53 0.21,18.37 -0.12,18.09 -0.46,17.81 -0.70,17.43 -0.93,17.05 -1.03,16.62 -1.14,16.19 -1.10,15.74 -1.05,15.30 -0.87,14.89 -0.69,14.49 -0.39,14.16 -0.09,13.83 0.29,13.62 0.68,13.40 1.12,13.33 1.55,13.25 1.99,13.31 2.43,13.38 2.83,13.58 3.23,13.78 3.54,14.10 3.85,14.42 4.04,14.82 4.23,15.22 4.29,15.66 4.34,16.10 4.25,16.54 4.16,16.97 3.94,17.36 3.72,17.74 3.38,18.04 3.05,18.33 2.64,18.50 2.23,18.67 1.78,18.70 1.34,18.73 0.91,18.62 0.48,18.51 0.11,18.26 -0.25,18.02 -0.53,17.67 -0.80,17.32 -0.95,16.90 -1.10,16.48 -1.10,16.48 -1.10,16.48 -1.51,14.46 -1.93,12.43 -1.97,10.69 -2.02,8.96 -2.25,7.46 -2.48,5.97 -2.48,4.59 -2.47,3.21 -2.50,1.60 -2.54,0 -2.50,-0.30 -2.47,-0.60 -2.36,-0.89 -2.25,-1.18 -2.07,-1.43 -1.90,-1.68 -1.67,-1.89 -1.44,-2.09 -1.17,-2.23 -0.90,-2.37 -0.60,-2.45 -0.30,-2.52 0.00,-2.52 0.30,-2.52 0.60,-2.45 0.90,-2.37 1.17,-2.23 1.44,-2.09 1.67,-1.89 1.90,-1.68 2.07,-1.43 2.25,-1.18 2.36,-0.89 2.47,-0.60 2.50,-0.30 2.54,0.00 2.54,0.00 L 2.54,0 Z"></path></g><g transform="translate(407.6000061035156 312.3999938964844) rotate(0 16.399993896484375 8.4000244140625)" stroke="none"><path fill="#1e1e1e" d="M -0.71,-2.50 Q -0.71,-2.50 0.90,-2.91 2.53,-3.31 3.58,-3.73 4.62,-4.15 5.76,-4.43 6.90,-4.70 8.19,-4.91 9.48,-5.12 11.25,-4.92 13.01,-4.72 14.02,-4.36 15.03,-4.00 16.30,-3.56 17.57,-3.12 19.02,-2.23 20.48,-1.35 21.47,-0.50 22.46,0.33 23.06,2.02 23.65,3.70 24.19,5.13 24.74,6.56 24.34,7.83 23.95,9.10 22.96,10.01 21.97,10.93 20.33,11.84 18.68,12.75 16.53,13.75 14.38,14.74 12.34,15.55 10.31,16.35 8.64,17.45 6.98,18.54 6.49,16.95 6.01,15.35 7.41,15.18 8.82,15.01 10.18,15.12 11.54,15.23 13.73,15.28 15.92,15.33 17.75,15.67 19.58,16.00 20.66,16.10 21.73,16.19 22.84,16.23 23.95,16.27 25.52,16.25 27.09,16.22 28.25,16.18 29.41,16.14 31.10,16.12 32.80,16.10 33.29,16.18 33.79,16.26 34.23,16.49 34.67,16.73 35.02,17.09 35.36,17.46 35.57,17.91 35.78,18.37 35.84,18.87 35.89,19.36 35.78,19.85 35.67,20.34 35.42,20.77 35.16,21.20 34.77,21.53 34.39,21.85 33.93,22.04 33.46,22.22 32.96,22.25 32.46,22.28 31.98,22.14 31.49,22.01 31.08,21.73 30.66,21.44 30.36,21.04 30.06,20.65 29.90,20.17 29.74,19.69 29.74,19.19 29.74,18.69 29.90,18.22 30.06,17.74 30.36,17.34 30.66,16.94 31.08,16.66 31.50,16.38 31.98,16.25 32.46,16.11 32.96,16.14 33.46,16.17 33.93,16.35 34.39,16.54 34.78,16.86 35.16,17.19 35.42,17.62 35.68,18.05 35.78,18.54 35.89,19.03 35.84,19.53 35.78,20.03 35.57,20.48 35.36,20.94 35.01,21.30 34.67,21.66 34.23,21.90 33.78,22.13 33.29,22.21 32.79,22.29 32.79,22.29 32.79,22.29 31.09,22.27 29.39,22.25 28.20,22.20 27.02,22.14 25.38,22.07 23.75,22.00 22.49,21.96 21.24,21.91 20.00,21.80 18.77,21.69 17.32,21.57 15.87,21.44 14.71,21.44 13.54,21.45 12.44,21.44 11.34,21.42 9.80,21.44 8.25,21.46 5.91,21.08 3.56,20.71 2.70,20.04 1.84,19.37 1.46,17.98 1.08,16.59 1.92,15.13 2.75,13.66 3.74,13.13 4.72,12.59 5.75,11.81 6.78,11.02 8.41,10.51 10.03,10.00 11.81,9.22 13.58,8.43 15.26,7.27 16.95,6.10 17.84,6.69 18.74,7.28 17.69,5.39 16.63,3.49 15.50,2.82 14.38,2.15 12.98,1.51 11.58,0.86 10.28,0.63 8.99,0.40 7.69,0.50 6.38,0.61 5.14,1.04 3.90,1.47 2.31,1.99 0.71,2.50 0.40,2.55 0.09,2.60 -0.21,2.57 -0.52,2.54 -0.82,2.44 -1.12,2.34 -1.38,2.17 -1.65,2.00 -1.86,1.78 -2.08,1.55 -2.24,1.28 -2.39,1.01 -2.48,0.70 -2.57,0.40 -2.58,0.09 -2.59,-0.21 -2.52,-0.52 -2.46,-0.83 -2.32,-1.11 -2.19,-1.39 -1.99,-1.64 -1.79,-1.88 -1.54,-2.07 -1.29,-2.25 -1.00,-2.38 -0.71,-2.50 -0.71,-2.50 L -0.71,-2.50 Z"></path></g><g transform="translate(702.8000183105469 306.0000305175781) rotate(0 14 20)" stroke="none"><path fill="#1e1e1e" d="M 0,-2.65 Q 0,-2.65 1.37,-2.64 2.75,-2.63 4.38,-2.70 6.00,-2.78 7.61,-2.84 9.23,-2.89 10.57,-2.64 11.90,-2.38 13.71,-1.96 15.51,-1.54 16.58,-1.15 17.66,-0.77 19.09,-0.03 20.53,0.70 21.80,1.66 23.08,2.62 23.75,3.53 24.43,4.43 25.33,5.07 26.23,5.71 26.93,6.65 27.64,7.59 28.43,8.85 29.22,10.11 29.73,11.85 30.25,13.60 30.59,15.54 30.93,17.49 30.29,18.94 29.66,20.39 28.65,21.21 27.64,22.04 26.39,22.49 25.14,22.93 22.74,23.07 20.33,23.20 18.43,23.21 16.52,23.23 15.43,23.26 14.33,23.29 13.94,23.24 13.54,23.20 13.17,23.06 12.80,22.92 12.47,22.69 12.14,22.47 11.88,22.17 11.61,21.88 11.43,21.53 11.24,21.18 11.14,20.79 11.05,20.41 11.04,20.01 11.04,19.61 11.14,19.22 11.23,18.84 11.41,18.49 11.59,18.13 11.86,17.84 12.12,17.54 12.44,17.31 12.77,17.08 13.14,16.94 13.51,16.80 13.91,16.75 14.30,16.70 15.95,17.63 17.59,18.56 18.92,19.56 20.24,20.57 21.06,21.36 21.87,22.16 23.41,23.38 24.95,24.60 25.82,25.98 26.69,27.36 27.79,29.33 28.90,31.29 29.46,32.41 30.03,33.53 30.22,34.75 30.41,35.97 29.44,38.13 28.46,40.28 26.53,41.50 24.60,42.71 23.51,42.91 22.42,43.10 20.89,43.20 19.35,43.30 17.68,43.33 16.01,43.36 15.47,43.27 14.93,43.18 14.45,42.93 13.97,42.68 13.60,42.28 13.22,41.89 12.99,41.40 12.76,40.91 12.70,40.37 12.64,39.83 12.75,39.29 12.87,38.76 13.15,38.30 13.43,37.83 13.84,37.48 14.25,37.12 14.76,36.92 15.26,36.72 15.80,36.68 16.35,36.65 16.87,36.80 17.39,36.94 17.85,37.24 18.30,37.55 18.63,37.98 18.96,38.41 19.13,38.92 19.31,39.44 19.31,39.98 19.31,40.53 19.14,41.04 18.97,41.56 18.64,41.99 18.31,42.43 17.87,42.73 17.42,43.04 16.89,43.19 16.37,43.33 15.83,43.31 15.28,43.28 14.78,43.08 14.27,42.88 13.86,42.53 13.44,42.18 13.16,41.71 12.88,41.25 12.76,40.72 12.64,40.19 12.70,39.65 12.75,39.11 12.98,38.61 13.21,38.12 13.58,37.72 13.95,37.33 14.43,37.07 14.91,36.81 15.45,36.72 15.98,36.63 15.98,36.63 15.98,36.63 17.55,36.63 19.11,36.63 20.28,36.59 21.46,36.55 22.71,35.86 23.95,35.16 23.42,33.88 22.89,32.60 22.06,31.56 21.22,30.53 20.31,29.39 19.40,28.25 17.68,26.89 15.96,25.52 15.14,24.41 14.33,23.29 13.94,23.24 13.54,23.20 13.17,23.06 12.80,22.92 12.47,22.69 12.14,22.47 11.88,22.17 11.61,21.88 11.43,21.53 11.24,21.18 11.14,20.79 11.05,20.41 11.04,20.01 11.04,19.61 11.14,19.23 11.23,18.84 11.41,18.49 11.59,18.13 11.86,17.84 12.12,17.54 12.44,17.31 12.77,17.08 13.14,16.94 13.51,16.80 13.91,16.75 14.30,16.70 15.39,16.72 16.47,16.74 18.31,16.71 20.15,16.68 21.26,16.61 22.37,16.54 23.54,16.79 24.71,17.04 24.23,16.03 23.76,15.01 23.49,13.76 23.21,12.51 22.14,11.16 21.06,9.82 19.60,8.30 18.13,6.78 17.04,5.96 15.95,5.14 14.33,4.35 12.71,3.57 10.95,3.23 9.20,2.89 7.60,2.84 6.00,2.78 4.38,2.70 2.75,2.63 1.37,2.64 0,2.65 -0.31,2.61 -0.63,2.57 -0.93,2.46 -1.23,2.34 -1.49,2.16 -1.75,1.98 -1.97,1.74 -2.18,1.50 -2.33,1.22 -2.48,0.94 -2.55,0.63 -2.63,0.31 -2.63,-0.00 -2.63,-0.31 -2.55,-0.63 -2.48,-0.94 -2.33,-1.22 -2.18,-1.50 -1.97,-1.74 -1.75,-1.98 -1.49,-2.16 -1.23,-2.34 -0.93,-2.46 -0.63,-2.57 -0.31,-2.61 0.00,-2.65 0.00,-2.65 L 0,-2.65 Z"></path></g><g transform="translate(796.3999938964844 274.8000183105469) rotate(0 14.4000244140625 0)" stroke="none"><path fill="#1e1e1e" d="M 0,-2.39 Q 0,-2.39 2.07,-2.26 4.14,-2.14 5.93,-2.11 7.73,-2.08 9.19,-2.11 10.64,-2.15 12.18,-2.16 13.72,-2.18 15.06,-2.22 16.41,-2.25 18.80,-2.33 21.19,-2.41 23.13,-2.50 25.06,-2.59 26.93,-2.62 28.80,-2.65 29.22,-2.58 29.64,-2.51 30.02,-2.31 30.40,-2.11 30.70,-1.80 30.99,-1.49 31.17,-1.10 31.35,-0.71 31.40,-0.28 31.45,0.14 31.35,0.56 31.26,0.98 31.04,1.35 30.82,1.71 30.49,1.99 30.16,2.27 29.76,2.43 29.37,2.59 28.94,2.61 28.51,2.63 28.09,2.52 27.68,2.40 27.32,2.16 26.97,1.92 26.71,1.58 26.45,1.24 26.31,0.83 26.17,0.42 26.17,-0.00 26.17,-0.42 26.31,-0.83 26.45,-1.24 26.71,-1.58 26.97,-1.92 27.32,-2.16 27.68,-2.41 28.09,-2.52 28.51,-2.63 28.94,-2.61 29.37,-2.59 29.77,-2.43 30.16,-2.27 30.49,-1.99 30.82,-1.71 31.04,-1.35 31.26,-0.98 31.35,-0.56 31.45,-0.14 31.40,0.28 31.35,0.71 31.17,1.10 30.99,1.49 30.70,1.80 30.40,2.11 30.02,2.31 29.64,2.51 29.22,2.58 28.79,2.65 28.79,2.65 28.80,2.65 26.93,2.62 25.06,2.59 23.13,2.50 21.19,2.41 18.80,2.33 16.41,2.25 15.06,2.22 13.72,2.18 12.18,2.16 10.64,2.15 9.19,2.11 7.73,2.08 5.93,2.11 4.14,2.14 2.07,2.26 0,2.39 -0.28,2.35 -0.57,2.32 -0.84,2.21 -1.11,2.11 -1.34,1.95 -1.58,1.78 -1.77,1.57 -1.96,1.35 -2.10,1.10 -2.23,0.84 -2.30,0.56 -2.37,0.28 -2.37,-0.00 -2.37,-0.28 -2.30,-0.56 -2.23,-0.84 -2.10,-1.10 -1.96,-1.35 -1.77,-1.57 -1.58,-1.78 -1.34,-1.95 -1.11,-2.11 -0.84,-2.21 -0.57,-2.32 -0.28,-2.35 0.00,-2.39 0.00,-2.39 L 0,-2.39 Z"></path></g><g transform="translate(809.9999694824219 18.800018310546875) rotate(0 16.800048828125 2.8000030517578125)" stroke="none"><path fill="#1e1e1e" d="M 0.35,-2.47 Q 0.35,-2.47 1.97,-2.20 3.59,-1.93 5.51,-0.99 7.43,-0.04 8.58,0.18 9.72,0.42 10.85,0.50 11.99,0.59 13.20,0.88 14.41,1.17 15.56,1.50 16.71,1.83 18.34,1.93 19.96,2.02 21.64,2.00 23.32,1.97 24.67,2.00 26.02,2.02 27.35,2.27 28.68,2.52 31.16,2.60 33.64,2.68 34.11,2.76 34.57,2.85 34.99,3.07 35.40,3.30 35.72,3.65 36.04,4.00 36.23,4.43 36.42,4.86 36.46,5.33 36.51,5.80 36.40,6.26 36.29,6.72 36.04,7.12 35.79,7.52 35.42,7.82 35.06,8.12 34.62,8.29 34.18,8.46 33.70,8.47 33.23,8.49 32.78,8.36 32.33,8.22 31.94,7.95 31.55,7.68 31.27,7.30 30.99,6.92 30.85,6.47 30.71,6.02 30.72,5.55 30.72,5.08 30.88,4.63 31.04,4.19 31.33,3.81 31.62,3.44 32.02,3.18 32.41,2.93 32.87,2.81 33.33,2.69 33.80,2.72 34.27,2.76 34.71,2.94 35.14,3.12 35.50,3.43 35.85,3.74 36.09,4.15 36.32,4.56 36.42,5.02 36.51,5.49 36.45,5.95 36.39,6.42 36.19,6.85 35.98,7.27 35.65,7.61 35.32,7.95 34.90,8.16 34.48,8.38 34.01,8.44 33.55,8.51 33.55,8.51 33.55,8.51 31.27,8.40 28.99,8.29 27.48,7.92 25.97,7.55 23.57,7.54 21.16,7.52 19.55,7.33 17.94,7.15 16.56,6.93 15.18,6.71 13.31,6.04 11.44,5.38 10.03,5.18 8.61,4.98 7.01,4.55 5.41,4.11 4.13,3.48 2.84,2.85 1.24,2.66 -0.35,2.47 -0.64,2.39 -0.93,2.31 -1.19,2.17 -1.46,2.02 -1.68,1.82 -1.90,1.61 -2.07,1.36 -2.23,1.11 -2.33,0.83 -2.43,0.54 -2.46,0.24 -2.49,-0.05 -2.45,-0.35 -2.41,-0.64 -2.30,-0.92 -2.18,-1.20 -2.01,-1.45 -1.83,-1.69 -1.60,-1.89 -1.37,-2.08 -1.10,-2.22 -0.83,-2.35 -0.54,-2.42 -0.24,-2.48 0.05,-2.48 0.35,-2.47 0.35,-2.47 L 0.35,-2.47 Z"></path></g><g transform="translate(873.2000427246094 26.800018310546875) rotate(0 0.00004999999998744897 0.00004999999998744897)" stroke="none"><path fill="#1e1e1e" d="M 1.57,-1.57 Q 1.57,-1.57 1.77,-1.27 1.98,-0.98 2.09,-0.64 2.20,-0.29 2.19,0.05 2.18,0.41 2.05,0.75 1.93,1.09 1.70,1.37 1.48,1.65 1.18,1.84 0.87,2.04 0.52,2.12 0.18,2.21 -0.17,2.18 -0.53,2.15 -0.86,2.01 -1.19,1.87 -1.46,1.63 -1.73,1.39 -1.90,1.07 -2.08,0.76 -2.15,0.41 -2.21,0.05 -2.17,-0.29 -2.12,-0.65 -1.96,-0.97 -1.80,-1.29 -1.54,-1.54 -1.29,-1.80 -0.97,-1.96 -0.65,-2.12 -0.29,-2.17 0.06,-2.21 0.41,-2.15 0.76,-2.08 1.07,-1.90 1.39,-1.73 1.63,-1.46 1.87,-1.19 2.01,-0.86 2.15,-0.53 2.18,-0.17 2.21,0.18 2.12,0.52 2.03,0.87 1.84,1.18 1.65,1.48 1.37,1.70 1.09,1.93 0.75,2.05 0.41,2.18 0.05,2.19 -0.30,2.20 -0.64,2.09 -0.98,1.98 -1.27,1.77 -1.57,1.56 -1.57,1.57 -1.57,1.57 -1.73,1.35 -1.90,1.14 -2.01,0.90 -2.12,0.66 -2.16,0.39 -2.21,0.13 -2.20,-0.13 -2.18,-0.40 -2.10,-0.65 -2.02,-0.91 -1.88,-1.14 -1.74,-1.36 -1.55,-1.55 -1.36,-1.74 -1.14,-1.88 -0.91,-2.02 -0.65,-2.10 -0.40,-2.18 -0.13,-2.20 0.13,-2.21 0.39,-2.16 0.66,-2.12 0.90,-2.01 1.14,-1.90 1.35,-1.73 1.57,-1.57 1.57,-1.57 L 1.57,-1.57 Z"></path></g><g transform="translate(922.8000183105469 25.20001220703125) rotate(0 0.00004999999998744897 0.00004999999998744897)" stroke="none"><path fill="#1e1e1e" d="M 1.57,-1.57 Q 1.57,-1.57 1.77,-1.27 1.98,-0.98 2.09,-0.64 2.20,-0.29 2.19,0.05 2.18,0.41 2.05,0.75 1.93,1.09 1.70,1.37 1.48,1.65 1.18,1.84 0.87,2.04 0.52,2.12 0.18,2.21 -0.17,2.18 -0.53,2.15 -0.86,2.01 -1.19,1.87 -1.46,1.63 -1.73,1.39 -1.90,1.07 -2.08,0.76 -2.15,0.41 -2.21,0.05 -2.17,-0.29 -2.12,-0.65 -1.96,-0.97 -1.80,-1.29 -1.54,-1.54 -1.29,-1.80 -0.97,-1.96 -0.65,-2.12 -0.29,-2.17 0.06,-2.21 0.41,-2.15 0.76,-2.08 1.07,-1.90 1.39,-1.73 1.63,-1.46 1.87,-1.19 2.01,-0.86 2.15,-0.53 2.18,-0.17 2.21,0.18 2.12,0.52 2.03,0.87 1.84,1.18 1.65,1.48 1.37,1.70 1.09,1.93 0.75,2.05 0.41,2.18 0.05,2.19 -0.30,2.20 -0.64,2.09 -0.98,1.98 -1.27,1.77 -1.57,1.56 -1.57,1.57 -1.57,1.57 -1.73,1.35 -1.90,1.14 -2.01,0.90 -2.12,0.66 -2.16,0.39 -2.21,0.13 -2.20,-0.13 -2.18,-0.40 -2.10,-0.65 -2.02,-0.91 -1.88,-1.14 -1.74,-1.36 -1.55,-1.55 -1.36,-1.74 -1.14,-1.88 -0.91,-2.02 -0.65,-2.10 -0.40,-2.18 -0.13,-2.20 0.13,-2.21 0.39,-2.16 0.66,-2.12 0.90,-2.01 1.14,-1.90 1.35,-1.73 1.57,-1.57 1.57,-1.57 L 1.57,-1.57 Z"></path></g><g transform="translate(964.3999938964844 23.600006103515625) rotate(0 0.00004999999998744897 0.00004999999998744897)" stroke="none"><path fill="#1e1e1e" d="M 1.57,-1.57 Q 1.57,-1.57 1.77,-1.27 1.98,-0.98 2.09,-0.64 2.20,-0.29 2.19,0.05 2.18,0.41 2.05,0.75 1.93,1.09 1.70,1.37 1.48,1.65 1.18,1.84 0.87,2.04 0.52,2.12 0.18,2.21 -0.17,2.18 -0.53,2.15 -0.86,2.01 -1.19,1.87 -1.46,1.63 -1.73,1.39 -1.90,1.07 -2.08,0.76 -2.15,0.41 -2.21,0.05 -2.17,-0.29 -2.12,-0.65 -1.96,-0.97 -1.80,-1.29 -1.54,-1.54 -1.29,-1.80 -0.97,-1.96 -0.65,-2.12 -0.29,-2.17 0.06,-2.21 0.41,-2.15 0.76,-2.08 1.07,-1.90 1.39,-1.73 1.63,-1.46 1.87,-1.19 2.01,-0.86 2.15,-0.53 2.18,-0.17 2.21,0.18 2.12,0.52 2.03,0.87 1.84,1.18 1.65,1.48 1.37,1.70 1.09,1.93 0.75,2.05 0.41,2.18 0.05,2.19 -0.30,2.20 -0.64,2.09 -0.98,1.98 -1.27,1.77 -1.57,1.56 -1.57,1.57 -1.57,1.57 -1.73,1.35 -1.90,1.14 -2.01,0.90 -2.12,0.66 -2.16,0.39 -2.21,0.13 -2.20,-0.13 -2.18,-0.40 -2.10,-0.65 -2.02,-0.91 -1.88,-1.14 -1.74,-1.36 -1.55,-1.55 -1.36,-1.74 -1.14,-1.88 -0.91,-2.02 -0.65,-2.10 -0.40,-2.18 -0.13,-2.20 0.13,-2.21 0.39,-2.16 0.66,-2.12 0.90,-2.01 1.14,-1.90 1.35,-1.73 1.57,-1.57 1.57,-1.57 L 1.57,-1.57 Z"></path></g><g transform="translate(872.3999938964844 283.6000061035156) rotate(0 0.00004999999998744897 0.00004999999998744897)" stroke="none"><path fill="#1e1e1e" d="M 1.57,-1.57 Q 1.57,-1.57 1.77,-1.27 1.98,-0.98 2.09,-0.64 2.20,-0.29 2.19,0.05 2.18,0.41 2.05,0.75 1.93,1.09 1.70,1.37 1.48,1.65 1.18,1.84 0.87,2.04 0.52,2.12 0.18,2.21 -0.17,2.18 -0.53,2.15 -0.86,2.01 -1.19,1.87 -1.46,1.63 -1.73,1.39 -1.90,1.07 -2.08,0.76 -2.15,0.41 -2.21,0.05 -2.17,-0.29 -2.12,-0.65 -1.96,-0.97 -1.80,-1.29 -1.54,-1.54 -1.29,-1.80 -0.97,-1.96 -0.65,-2.12 -0.29,-2.17 0.06,-2.21 0.41,-2.15 0.76,-2.08 1.07,-1.90 1.39,-1.73 1.63,-1.46 1.87,-1.19 2.01,-0.86 2.15,-0.53 2.18,-0.17 2.21,0.18 2.12,0.52 2.03,0.87 1.84,1.18 1.65,1.48 1.37,1.70 1.09,1.93 0.75,2.05 0.41,2.18 0.05,2.19 -0.30,2.20 -0.64,2.09 -0.98,1.98 -1.27,1.77 -1.57,1.56 -1.57,1.57 -1.57,1.57 -1.73,1.35 -1.90,1.14 -2.01,0.90 -2.12,0.66 -2.16,0.39 -2.21,0.13 -2.20,-0.13 -2.18,-0.40 -2.10,-0.65 -2.02,-0.91 -1.88,-1.14 -1.74,-1.36 -1.55,-1.55 -1.36,-1.74 -1.14,-1.88 -0.91,-2.02 -0.65,-2.10 -0.40,-2.18 -0.13,-2.20 0.13,-2.21 0.39,-2.16 0.66,-2.12 0.90,-2.01 1.14,-1.90 1.35,-1.73 1.57,-1.57 1.57,-1.57 L 1.57,-1.57 Z"></path></g><g transform="translate(929.9999694824219 283.6000061035156) rotate(0 0.00004999999998744897 0.00004999999998744897)" stroke="none"><path fill="#1e1e1e" d="M 1.57,-1.57 Q 1.57,-1.57 1.77,-1.27 1.98,-0.98 2.09,-0.64 2.20,-0.29 2.19,0.05 2.18,0.41 2.05,0.75 1.93,1.09 1.70,1.37 1.48,1.65 1.18,1.84 0.87,2.04 0.52,2.12 0.18,2.21 -0.17,2.18 -0.53,2.15 -0.86,2.01 -1.19,1.87 -1.46,1.63 -1.73,1.39 -1.90,1.07 -2.08,0.76 -2.15,0.41 -2.21,0.05 -2.17,-0.29 -2.12,-0.65 -1.96,-0.97 -1.80,-1.29 -1.54,-1.54 -1.29,-1.80 -0.97,-1.96 -0.65,-2.12 -0.29,-2.17 0.06,-2.21 0.41,-2.15 0.76,-2.08 1.07,-1.90 1.39,-1.73 1.63,-1.46 1.87,-1.19 2.01,-0.86 2.15,-0.53 2.18,-0.17 2.21,0.18 2.12,0.52 2.03,0.87 1.84,1.18 1.65,1.48 1.37,1.70 1.09,1.93 0.75,2.05 0.41,2.18 0.05,2.19 -0.30,2.20 -0.64,2.09 -0.98,1.98 -1.27,1.77 -1.57,1.56 -1.57,1.57 -1.57,1.57 -1.73,1.35 -1.90,1.14 -2.01,0.90 -2.12,0.66 -2.16,0.39 -2.21,0.13 -2.20,-0.13 -2.18,-0.40 -2.10,-0.65 -2.02,-0.91 -1.88,-1.14 -1.74,-1.36 -1.55,-1.55 -1.36,-1.74 -1.14,-1.88 -0.91,-2.02 -0.65,-2.10 -0.40,-2.18 -0.13,-2.20 0.13,-2.21 0.39,-2.16 0.66,-2.12 0.90,-2.01 1.14,-1.90 1.35,-1.73 1.57,-1.57 1.57,-1.57 L 1.57,-1.57 Z"></path></g><g transform="translate(989.9999694824219 289.2000427246094) rotate(0 0.00004999999998744897 0.00004999999998744897)" stroke="none"><path fill="#1e1e1e" d="M 1.57,-1.57 Q 1.57,-1.57 1.77,-1.27 1.98,-0.98 2.09,-0.64 2.20,-0.29 2.19,0.05 2.18,0.41 2.05,0.75 1.93,1.09 1.70,1.37 1.48,1.65 1.18,1.84 0.87,2.04 0.52,2.12 0.18,2.21 -0.17,2.18 -0.53,2.15 -0.86,2.01 -1.19,1.87 -1.46,1.63 -1.73,1.39 -1.90,1.07 -2.08,0.76 -2.15,0.41 -2.21,0.05 -2.17,-0.29 -2.12,-0.65 -1.96,-0.97 -1.80,-1.29 -1.54,-1.54 -1.29,-1.80 -0.97,-1.96 -0.65,-2.12 -0.29,-2.17 0.06,-2.21 0.41,-2.15 0.76,-2.08 1.07,-1.90 1.39,-1.73 1.63,-1.46 1.87,-1.19 2.01,-0.86 2.15,-0.53 2.18,-0.17 2.21,0.18 2.12,0.52 2.03,0.87 1.84,1.18 1.65,1.48 1.37,1.70 1.09,1.93 0.75,2.05 0.41,2.18 0.05,2.19 -0.30,2.20 -0.64,2.09 -0.98,1.98 -1.27,1.77 -1.57,1.56 -1.57,1.57 -1.57,1.57 -1.73,1.35 -1.90,1.14 -2.01,0.90 -2.12,0.66 -2.16,0.39 -2.21,0.13 -2.20,-0.13 -2.18,-0.40 -2.10,-0.65 -2.02,-0.91 -1.88,-1.14 -1.74,-1.36 -1.55,-1.55 -1.36,-1.74 -1.14,-1.88 -0.91,-2.02 -0.65,-2.10 -0.40,-2.18 -0.13,-2.20 0.13,-2.21 0.39,-2.16 0.66,-2.12 0.90,-2.01 1.14,-1.90 1.35,-1.73 1.57,-1.57 1.57,-1.57 L 1.57,-1.57 Z"></path></g><g transform="translate(66 301.2000427246094) rotate(0 0 0.399993896484375)" stroke="none"><path fill="#1e1e1e" d="M 2.12,-0.66 Q 2.12,-0.66 2.15,-0.13 2.18,0.40 1.96,0.88 1.74,1.36 1.32,1.69 0.91,2.02 0.38,2.12 -0.13,2.21 -0.64,2.05 -1.14,1.90 -1.52,1.52 -1.90,1.14 -2.05,0.64 -2.21,0.13 -2.12,-0.38 -2.02,-0.91 -1.69,-1.32 -1.36,-1.74 -0.88,-1.96 -0.39,-2.18 0.13,-2.15 0.66,-2.11 1.11,-1.84 1.57,-1.56 1.84,-1.11 L 2.12,-0.66 Z"></path></g><g transform="translate(35.600006103515625 299.6000061035156) rotate(0 0.00004999999998744897 0.00004999999998744897)" stroke="none"><path fill="#1e1e1e" d="M 1.57,-1.57 Q 1.57,-1.57 1.77,-1.27 1.98,-0.98 2.09,-0.64 2.20,-0.29 2.19,0.05 2.18,0.41 2.05,0.75 1.93,1.09 1.70,1.37 1.48,1.65 1.18,1.84 0.87,2.04 0.52,2.12 0.18,2.21 -0.17,2.18 -0.53,2.15 -0.86,2.01 -1.19,1.87 -1.46,1.63 -1.73,1.39 -1.90,1.07 -2.08,0.76 -2.15,0.41 -2.21,0.05 -2.17,-0.29 -2.12,-0.65 -1.96,-0.97 -1.80,-1.29 -1.54,-1.54 -1.29,-1.80 -0.97,-1.96 -0.65,-2.12 -0.29,-2.17 0.06,-2.21 0.41,-2.15 0.76,-2.08 1.07,-1.90 1.39,-1.73 1.63,-1.46 1.87,-1.19 2.01,-0.86 2.15,-0.53 2.18,-0.17 2.21,0.18 2.12,0.52 2.03,0.87 1.84,1.18 1.65,1.48 1.37,1.70 1.09,1.93 0.75,2.05 0.41,2.18 0.05,2.19 -0.30,2.20 -0.64,2.09 -0.98,1.98 -1.27,1.77 -1.57,1.56 -1.57,1.57 -1.57,1.57 -1.73,1.35 -1.90,1.14 -2.01,0.90 -2.12,0.66 -2.16,0.39 -2.21,0.13 -2.20,-0.13 -2.18,-0.40 -2.10,-0.65 -2.02,-0.91 -1.88,-1.14 -1.74,-1.36 -1.55,-1.55 -1.36,-1.74 -1.14,-1.88 -0.91,-2.02 -0.65,-2.10 -0.40,-2.18 -0.13,-2.20 0.13,-2.21 0.39,-2.16 0.66,-2.12 0.90,-2.01 1.14,-1.90 1.35,-1.73 1.57,-1.57 1.57,-1.57 L 1.57,-1.57 Z"></path></g><g transform="translate(10 297.2000427246094) rotate(0 0.00004999999998744897 0.00004999999998744897)" stroke="none"><path fill="#1e1e1e" d="M 1.57,-1.57 Q 1.57,-1.57 1.77,-1.27 1.98,-0.98 2.09,-0.64 2.20,-0.29 2.19,0.05 2.18,0.41 2.05,0.75 1.93,1.09 1.70,1.37 1.48,1.65 1.18,1.84 0.87,2.04 0.52,2.12 0.18,2.21 -0.17,2.18 -0.53,2.15 -0.86,2.01 -1.19,1.87 -1.46,1.63 -1.73,1.39 -1.90,1.07 -2.08,0.76 -2.15,0.41 -2.21,0.05 -2.17,-0.29 -2.12,-0.65 -1.96,-0.97 -1.80,-1.29 -1.54,-1.54 -1.29,-1.80 -0.97,-1.96 -0.65,-2.12 -0.29,-2.17 0.06,-2.21 0.41,-2.15 0.76,-2.08 1.07,-1.90 1.39,-1.73 1.63,-1.46 1.87,-1.19 2.01,-0.86 2.15,-0.53 2.18,-0.17 2.21,0.18 2.12,0.52 2.03,0.87 1.84,1.18 1.65,1.48 1.37,1.70 1.09,1.93 0.75,2.05 0.41,2.18 0.05,2.19 -0.30,2.20 -0.64,2.09 -0.98,1.98 -1.27,1.77 -1.57,1.56 -1.57,1.57 -1.57,1.57 -1.73,1.35 -1.90,1.14 -2.01,0.90 -2.12,0.66 -2.16,0.39 -2.21,0.13 -2.20,-0.13 -2.18,-0.40 -2.10,-0.65 -2.02,-0.91 -1.88,-1.14 -1.74,-1.36 -1.55,-1.55 -1.36,-1.74 -1.14,-1.88 -0.91,-2.02 -0.65,-2.10 -0.40,-2.18 -0.13,-2.20 0.13,-2.21 0.39,-2.16 0.66,-2.12 0.90,-2.01 1.14,-1.90 1.35,-1.73 1.57,-1.57 1.57,-1.57 L 1.57,-1.57 Z"></path></g></svg>